<?xml version="1.0" encoding="UTF-8"?>
<svg version="1.1" xmlns="http://www.w3.org/2000/svg" width="460" height="240">
<path d="M0 0 C151.8 0 303.6 0 460 0 C460 79.2 460 158.4 460 240 C308.2 240 156.4 240 0 240 C0 160.8 0 81.6 0 0 Z " fill="#FDFDFD" transform="translate(0,0)"/>
<path d="M0 0 C94.05 0 188.1 0 285 0 C285 44.55 285 89.1 285 135 C190.95 135 96.9 135 0 135 C0 90.45 0 45.9 0 0 Z " fill="#010101" transform="translate(40,54)"/>
<path d="M0 0 C133.98 0 267.96 0 406 0 C406 54.45 406 108.9 406 165 C272.02 165 138.04 165 0 165 C0 110.55 0 56.1 0 0 Z M16 15 C16 59.55 16 104.1 16 150 C110.05 150 204.1 150 301 150 C301 105.45 301 60.9 301 15 C206.95 15 112.9 15 16 15 Z " fill="#FEFEFE" transform="translate(24,39)"/>
<path d="M0 0 C133.98 0 267.96 0 406 0 C406 54.45 406 108.9 406 165 C272.02 165 138.04 165 0 165 C0 110.55 0 56.1 0 0 Z M4 5 C4 56.15 4 107.3 4 160 C135.01 160 266.02 160 401 160 C401 108.85 401 57.7 401 5 C269.99 5 138.98 5 4 5 Z " fill="#131313" transform="translate(24,39)"/>
<path d="M0 0 C22 0 22 0 28 3 C32.19929538 7.65327325 33.36033694 10.53067768 33.28125 16.6796875 C32.8448012 20.28039012 31.36531761 22.31504488 29 25 C26.25 26.875 26.25 26.875 24 28 C25.37798126 31.87644224 27.19239726 34.87896006 29.625 38.1875 C33 42.78163265 33 42.78163265 33 45 C29.80078125 45.46484375 29.80078125 45.46484375 26 45 C23.88212921 42.82561192 22.60834508 40.22681115 21.1875 37.5625 C18.13896278 32.13466376 18.13896278 32.13466376 13.13671875 28.78125 C10.1039212 28.45869373 10.1039212 28.45869373 6 29 C6 34.28 6 39.56 6 45 C4.02 45 2.04 45 0 45 C0 30.15 0 15.3 0 0 Z " fill="#F4F4F4" transform="translate(240,97)"/>
<path d="M0 0 C13.86 0 27.72 0 42 0 C42 4.29 42 8.58 42 13 C37.38 13 32.76 13 28 13 C28 24.22 28 35.44 28 47 C23.38 47 18.76 47 14 47 C14 35.78 14 24.56 14 13 C9.38 13 4.76 13 0 13 C0 8.71 0 4.42 0 0 Z " fill="#0A0A0A" transform="translate(368,99)"/>
<path d="M0 0 C1.98 0 3.96 0 6 0 C10.17107078 8.78469796 13.98918097 17.65426446 17.57958984 26.68823242 C18.39028688 28.72592366 19.20852596 30.76048207 20.02734375 32.79492188 C20.54731858 34.096177 21.06686684 35.39760268 21.5859375 36.69921875 C22.28275635 38.44464966 22.28275635 38.44464966 22.99365234 40.2253418 C24 43 24 43 24 45 C22.02 45 20.04 45 18 45 C16.68 42.03 15.36 39.06 14 36 C6.74 36 -0.52 36 -8 36 C-9.32 38.97 -10.64 41.94 -12 45 C-13.98 45 -15.96 45 -18 45 C-16.0700486 38.95839129 -13.89064168 33.08850974 -11.42578125 27.24609375 C-11.09708542 26.45977066 -10.76838959 25.67344757 -10.42973328 24.86329651 C-9.39368719 22.38674815 -8.35318065 19.91210389 -7.3125 17.4375 C-6.60321793 15.74426529 -5.89423091 14.05090697 -5.18554688 12.35742188 C-3.46043384 8.23684632 -1.73132184 4.11797046 0 0 Z " fill="#F0F0F0" transform="translate(203,97)"/>
<path d="M0 0 C1.98 0 3.96 0 6 0 C6 6.27 6 12.54 6 19 C13.92 19 21.84 19 30 19 C30 12.73 30 6.46 30 0 C31.65 0 33.3 0 35 0 C35 14.85 35 29.7 35 45 C33.35 45 31.7 45 30 45 C30 38.4 30 31.8 30 25 C22.08 25 14.16 25 6 25 C6 31.6 6 38.2 6 45 C4.02 45 2.04 45 0 45 C0 30.15 0 15.3 0 0 Z " fill="#F4F4F4" transform="translate(93,97)"/>
<path d="M0 0 C4.29 0 8.58 0 13 0 C13 15.51 13 31.02 13 47 C8.71 47 4.42 47 0 47 C0 31.49 0 15.98 0 0 Z " fill="#010101" transform="translate(348,99)"/>
<path d="M0 0 C9.24 0 18.48 0 28 0 C28 1.65 28 3.3 28 5 C20.74 5 13.48 5 6 5 C6 9.62 6 14.24 6 19 C12.6 19 19.2 19 26 19 C26 20.98 26 22.96 26 25 C19.4 25 12.8 25 6 25 C6 29.95 6 34.9 6 40 C13.26 40 20.52 40 28 40 C28 41.65 28 43.3 28 45 C18.76 45 9.52 45 0 45 C0 30.15 0 15.3 0 0 Z " fill="#F1F1F1" transform="translate(146,97)"/>
<path d="M0 0 C15.26785714 -0.66964286 15.26785714 -0.66964286 18.9375 2.0625 C21.53327109 5.7595073 21.71253588 7.56644342 21 12 C18.8 16.6 18.8 16.6 16 18 C13.28024285 18.07187519 10.59325368 18.0927862 7.875 18.0625 C5.27625 18.041875 2.6775 18.02125 0 18 C0 12.06 0 6.12 0 0 Z " fill="#040404" transform="translate(246,102)"/>
<path d="M0 0 C2.22652997 3.33979496 3.64941252 6.79338073 5.125 10.5 C5.40214844 11.17675781 5.67929688 11.85351562 5.96484375 12.55078125 C7.15187214 15.5154285 8 17.77680496 8 21 C2.72 21 -2.56 21 -8 21 C-7.09262391 16.46311953 -5.73558574 12.49891037 -4 8.25 C-3.59007812 7.22326172 -3.59007812 7.22326172 -3.171875 6.17578125 C-1.13600498 1.13600498 -1.13600498 1.13600498 0 0 Z " fill="#090909" transform="translate(206,105)"/>
</svg>
